# xmcd CD database file
#
# Track frame offsets:
#	150
#	13310
#	34502
#	52203
#	65563
#	81878
#	105713
#	128018
#	142271
#	164194
#	191819
#	214081
#	228551
#	251878
#	278842
#	299708
#	307895
#	327454
#
# Disc length: 4600 seconds
#
# Revision: 0
# Processed by: cddbd v1.5.1PL2 Copyright (c) Steve Scherf et al.
# Submitted via: CDex 1.70beta1
#
DISCID=2811f612
DTITLE=Honeyboy, Lockwood, Townsend, Pinetop - Last Of The Great Mississippi Delta Bluesmen
DYEAR=2006
DGENRE=Blues
TTITLE0=King Biscuit Time
TTITLE1=Chicken Shack
TTITLE2=It's Got To End Sometime
TTITLE3=Catfish Blues
TTITLE4=Down In Mississippi
TTITLE5=Hangin' On
TTITLE6=All My Money's Gone
TTITLE7=Sweet Home Chicago
TTITLE8=Kansas City
TTITLE9=If I Asked You
TTITLE10=Got To Find Me A Woman
TTITLE11=Country Boy
TTITLE12=Got My Mojo Working
TTITLE13=If You Don't Want Me
TTITLE14=For You My Love
TTITLE15=Apron Strings
TTITLE16=Blind Girl Blues
TTITLE17=CC Rider
EXTD=YEAR: 2006
EXTT0=
EXTT1=
EXTT2=
EXTT3=
EXTT4=
EXTT5=
EXTT6=
EXTT7=
EXTT8=
EXTT9=
EXTT10=
EXTT11=
EXTT12=
EXTT13=
EXTT14=
EXTT15=
EXTT16=
EXTT17=
PLAYORDER=
